# xmcd
#
# Track frame offsets: 
#        150
#        9614
#        27165
#        38889
#        57015
#        73791
#        86576
#        100993
#        114700
#        135273
#        143772
#
# Disc length: 2179 seconds
#
# Revision: 0
# Processed by: cddbd v1.5.2PL0 Copyright (c) Steve Scherf et al.
# Submitted via: ExactAudioCopy v0.99pb5
#
DISCID=8e08810b
DTITLE=Daniel Eriksen - Muddy Days
DYEAR=2010
DGENRE=Blues
TTITLE0=Muddy Days
TTITLE1=If I Had My Way
TTITLE2=Cross Eyed Pete
TTITLE3=Main Street Blues
TTITLE4=My Indian Red
TTITLE5=Big Road Blues
TTITLE6=Shortenin' Bread
TTITLE7=Lay My Burden Down
TTITLE8=Hu-Ta-Nay
TTITLE9=Wet Soil
TTITLE10=Narrow Path
EXTD=
EXTT0=
EXTT1=
EXTT2=
EXTT3=
EXTT4=
EXTT5=
EXTT6=
EXTT7=
EXTT8=
EXTT9=
EXTT10=
PLAYORDER=
